<svg width="26" height="18" viewBox="0 0 26 18" fill="none" xmlns="http://www.w3.org/2000/svg">
  <g clip-path="url(#clip0_2227_2031)">
    <path d="M1 1H25V17.0002H1V1Z" fill="white"/>
    <path
      d="M14.5 0.999512H11.5V7.49949H1V10.4995H11.5V16.9995H14.5V10.4995H25V7.49949H14.5V0.999512Z"
      fill="#D80027"/>
    <path
      d="M19.4586 11.7825L25 14.861V11.7825H19.4586ZM15.6086 11.7825L25 16.9999V15.5245L18.2643 11.7825H15.6086ZM22.4984 16.9999L15.6086 13.1718V16.9999H22.4984Z"
      fill="#0052B4"/>
    <path d="M15.6086 11.7825L25 16.9999V15.5245L18.2643 11.7825H15.6086Z" fill="white"/>
    <path d="M15.6086 11.7825L25 16.9999V15.5245L18.2643 11.7825H15.6086Z" fill="#D80027"/>
    <path
      d="M5.23473 11.7823L1 14.135V11.7823H5.23473ZM10.3913 12.4458V16.9998H2.19489L10.3913 12.4458Z"
      fill="#0052B4"/>
    <path d="M7.73561 11.7825L1 15.5245V16.9999L10.3913 11.7825H7.73561Z" fill="#D80027"/>
    <path
      d="M6.54133 6.21689L1 3.13833V6.21689H6.54133ZM10.3913 6.21689L1 0.999512V2.47486L7.73561 6.21689H10.3913ZM3.50153 0.999512L10.3913 4.82752V0.999512H3.50153Z"
      fill="#0052B4"/>
    <path d="M10.3913 6.21689L1 0.999512V2.47486L7.73561 6.21689H10.3913Z" fill="white"/>
    <path d="M10.3913 6.21689L1 0.999512V2.47486L7.73561 6.21689H10.3913Z" fill="#D80027"/>
    <path
      d="M20.7652 6.2173L25 3.86465V6.2173H20.7652ZM15.6086 5.55383V0.999878H23.8051L15.6086 5.55383Z"
      fill="#0052B4"/>
    <path d="M18.2643 6.21726L25 2.47522V0.999878L15.6086 6.21726H18.2643Z" fill="#D80027"/>
  </g>
  <rect x="0.5" y="0.5" width="25" height="17" stroke="white" stroke-opacity="0.19"/>
  <defs>
    <clipPath id="clip0_2227_2031">
      <rect x="1" y="1" width="24" height="16" fill="white"/>
    </clipPath>
  </defs>
</svg>
