<svg width="26" height="18" viewBox="0 0 26 18" fill="none" xmlns="http://www.w3.org/2000/svg">
  <g id="flag">
    <g clip-path="url(#clip0_2227_3169)">
      <path id="Vector" d="M1 1H25V17H1V1Z" fill="white"/>
      <path id="Vector_2" d="M1 1H25V5.26667H1V1ZM1 12.7333H25V17H1V12.7333Z" fill="#D03433"/>
      <path id="Vector_3" d="M1 5.26672H25V12.7334H1V5.26672Z" fill="#FBCA46"/>
      <path id="Vector_4" d="M9.32007 8.46667H10.3867V9.00001H9.32007V8.46667Z" fill="white"/>
      <path id="Vector_5"
            d="M8.68004 10.0667C8.68004 10.3867 9.00004 10.6 9.32004 10.6C9.64004 10.6 9.96004 10.3867 9.96004 10.0667L10.0667 8.46668H8.57337L8.68004 10.0667ZM8.04004 8.46668C8.04004 8.14668 8.25337 7.93335 8.46671 7.93335H10.0667C10.3867 7.93335 10.6 8.14668 10.6 8.36002V8.46668L10.4934 10.0667C10.3867 10.7067 9.96004 11.1333 9.32004 11.1333C8.68004 11.1333 8.25337 10.7067 8.14671 10.0667L8.04004 8.46668Z"
            fill="#A41517"/>
      <path id="Vector_6"
            d="M8.25332 9.00004H10.3867V9.53337H9.85332L9.31999 10.6L8.78665 9.53337H8.25332V9.00004ZM6.65332 7.40004H7.71999V11.1334H6.65332V7.40004ZM10.92 7.40004H11.9867V11.1334H10.92V7.40004ZM8.25332 6.86671C8.25332 6.54671 8.46665 6.33337 8.78665 6.33337H9.85332C10.1733 6.33337 10.3867 6.54671 10.3867 6.86671V7.08004C10.3867 7.29337 10.28 7.40004 10.0667 7.40004H8.46665C8.35999 7.40004 8.25332 7.29337 8.25332 7.18671V6.86671Z"
            fill="#A41517"/>
    </g>
    <rect x="0.5" y="0.5" width="25" height="17" stroke="white" stroke-opacity="0.19"/>
  </g>
  <defs>
    <clipPath id="clip0_2227_3169">
      <rect x="1" y="1" width="24" height="16" fill="white"/>
    </clipPath>
  </defs>
</svg>
